Coordinates
version=1
nRows=54
nColumns=12
inDegrees=yes

Units are S.I. units (second, meters, Newtons, ...)
Angles are in degrees

endheader
time	SC_y	SC_z	SC_x	AC_y	AC_z	AC_x	GH_y	GH_z	GH_yy	EL_x	PS_y
       0.0              -29.65           31.6          44.44          55.66         -19.61        -0.4569          79.83         -16.11         -52.52          16.95          144.5
   0.02199              -29.65           31.6          44.44          55.66         -19.61        -0.4543           79.8         -16.11          -52.5          16.97          144.5
   0.04398              -29.65          31.59          44.45          55.65         -19.61        -0.4516          79.77         -16.11         -52.48          16.98          144.5
   0.06597              -29.65          31.59          44.45          55.65          -19.6        -0.4488          79.73         -16.12         -52.46           17.0          144.5
   0.08796              -29.65          31.59          44.45          55.65          -19.6        -0.4457          79.69         -16.12         -52.44          17.02          144.5
    0.1099              -29.65          31.59          44.45          55.64         -19.59        -0.4424          79.65         -16.12         -52.42          17.04          144.5
    0.1319              -29.65          31.59          44.46          55.64         -19.59        -0.4389          79.61         -16.12         -52.39          17.06          144.5
    0.1539              -29.65          31.59          44.46          55.63         -19.58        -0.4352          79.56         -16.12         -52.37          17.08          144.5
    0.1759              -29.65          31.59          44.47          55.63         -19.58        -0.4312          79.51         -16.12         -52.34          17.11          144.5
    0.1979              -29.65          31.59          44.47          55.62         -19.57        -0.4269          79.46         -16.12         -52.31          17.13          144.4
    0.2199              -29.65          31.59          44.47          55.62         -19.57        -0.4223           79.4         -16.12         -52.27          17.16          144.4
    0.2419              -29.65          31.58          44.48          55.61         -19.56        -0.4173          79.34         -16.12         -52.24          17.19          144.4
    0.2639              -29.65          31.58          44.48           55.6         -19.55         -0.412          79.28         -16.12          -52.2          17.22          144.4
    0.2859              -29.65          31.58          44.49           55.6         -19.54        -0.4062           79.2         -16.12         -52.16          17.26          144.4
    0.3078              -29.65          31.58           44.5          55.59         -19.53        -0.3999          79.13         -16.12         -52.12           17.3          144.4
    0.3298              -29.64          31.58           44.5          55.58         -19.52        -0.3931          79.04         -16.12         -52.07          17.34          144.4
    0.3518              -29.64          31.58          44.51          55.57         -19.51        -0.3858          78.95         -16.12         -52.01          17.38          144.3
    0.3738              -29.64          31.57          44.52          55.56          -19.5        -0.3778          78.85         -16.12         -51.96          17.43          144.3
    0.3958              -29.64          31.57          44.53          55.55         -19.49         -0.369          78.74         -16.13          -51.9          17.48          144.3
    0.4178              -29.64          31.57          44.54          55.54         -19.47        -0.3594          78.63         -16.13         -51.83          17.54          144.3
    0.4398              -29.64          31.56          44.55          55.53         -19.46        -0.3488           78.5         -16.13         -51.75          17.61          144.2
    0.4618              -29.64          31.56          44.56          55.51         -19.44        -0.3372          78.35         -16.13         -51.67          17.68          144.2
    0.4838              -29.64          31.56          44.57           55.5         -19.42        -0.3244          78.19         -16.13         -51.58          17.75          144.2
    0.5058              -29.63          31.55          44.58          55.48          -19.4        -0.3102          78.02         -16.13         -51.48          17.84          144.2
    0.5277              -29.63          31.55           44.6          55.46         -19.38        -0.2945          77.82         -16.14         -51.37          17.94          144.1
    0.5497              -29.63          31.54          44.61          55.44         -19.36        -0.2768          77.61         -16.14         -51.24          18.04          144.1
    0.5717              -29.63          31.54          44.63          55.42         -19.33        -0.2571          77.36         -16.14          -51.1          18.16          144.0
    0.5937              -29.62          31.53          44.66          55.39          -19.3        -0.2349          77.09         -16.14         -50.94           18.3          144.0
    0.6157              -29.62          31.52          44.68          55.36         -19.26        -0.2099          76.78         -16.15         -50.76          18.45          143.9
    0.6377              -29.62          31.52          44.71          55.32         -19.22        -0.1814          76.43         -16.15         -50.56          18.62          143.8
    0.6597              -29.61          31.51          44.74          55.28         -19.17        -0.1489          76.02         -16.16         -50.33          18.82          143.7
    0.6817              -29.61           31.5          44.77          55.24         -19.12        -0.1116          75.56         -16.16         -50.07          19.04          143.7
    0.7037               -29.6          31.48          44.82          55.19         -19.06       -0.06855          75.03         -16.17         -49.76           19.3          143.5
    0.7256              -29.59          31.47          44.86          55.13         -18.99       -0.01852          74.41         -16.17         -49.41          19.61          143.4
    0.7476              -29.59          31.45          44.92          55.06          -18.9        0.04001          73.69         -16.18         -48.99          19.96          143.3
    0.7696              -29.58          31.43          44.99          54.97          -18.8          0.109          72.84         -16.19          -48.5          20.38          143.1
    0.7916              -29.57          31.41          45.07          54.87         -18.68          0.191          71.82          -16.2         -47.92          20.87          142.9
    0.8136              -29.55          31.38          45.16          54.75         -18.54         0.2893          70.61         -16.22         -47.22          21.47          142.7
    0.8356              -29.54          31.34          45.28          54.61         -18.37         0.4082          69.14         -16.23         -46.37          22.19          142.4
    0.8576              -29.52           31.3          45.42          54.43         -18.16         0.5535          67.34         -16.25         -45.34          23.07          142.0
    0.8796              -29.49          31.25          45.59          54.21         -17.91         0.7328          65.12         -16.28         -44.07          24.15          141.6
    0.9016              -29.46          31.18          45.81          53.94         -17.59         0.9564          62.36         -16.31         -42.48          25.51          141.0
    0.9235              -29.43           31.1          46.08           53.6         -17.18          1.238          58.88         -16.34         -40.48          27.21          140.3
    0.9455              -29.38           31.0          46.42          53.17         -16.67          1.596          54.45         -16.39         -37.93          29.38          139.4
    0.9675              -29.32          30.86          46.87          52.61         -16.01          2.054          48.79         -16.45         -34.68          32.16          138.3
    0.9895              -29.24          30.69          47.43          51.89         -15.16          2.642          41.52         -16.53          -30.5          35.72          136.8
     1.012              -29.14          30.47          48.16          50.98         -14.09          3.394          32.23         -16.64         -25.16          40.26          134.9
     1.033              -29.01           30.2          49.07          49.84         -12.73          4.338          20.55         -16.76         -18.45          45.98          132.6
     1.055              -28.86          29.86          50.18          48.44         -11.08          5.489           6.32         -16.92         -10.27          52.95          129.7
     1.077              -28.68          29.48          51.47          46.82         -9.161          6.823         -10.17          -17.1        -0.7941          61.03          126.4
     1.099              -28.49          29.05          52.86          45.06         -7.087          8.268         -28.03          -17.3           9.47          69.78          122.8
     1.121               -28.3          28.63          54.26          43.31         -5.013          9.713          -45.9         -17.49          19.73          78.52          119.2
     1.143              -28.12          28.25          55.55          41.69         -3.097          11.05         -62.39         -17.67          29.21           86.6          115.9
     1.165              -27.97          27.91          56.66          40.29         -1.444           12.2         -76.62         -17.83          37.39          93.57          113.0
